PathFileType	4	(X/Y/Z)	Patient4_TMGait_0pt4_02_right_35.trc.trc
DataRate	CameraRate	NumFrames	NumMarkers	Units	OrigDataRate	OrigDataStartFrame	OrigNumFrames
72.164948453608	72.164948453608	4	33	mm	72.164948453608	124	       141
Frame#	Time	Sacral			L.Shoulder			Chest			R.Shoulder			Neck			R.ASIS			L.ASIS			R.Thigh.Superior			R.Thigh.Lateral			R.Thigh.Inferior			R.Patella			L.Thigh.Superior			L.Thigh.Lateral			L.Thigh.Inferior			L.Patella			L.Shank.Superior			L.Shank.Lateral			L.Shank.Inferior			R.Shank.Superior			R.Shank.Lateral			R.Shank.Inferior			R.Heel			R.Midfoot.Superior			R.Midfoot.Lateral			R.Toe			L.Heel			L.Midfoot.Lateral			L.Midfoot.Superior			L.Toe			L.Elbow			L.Wrist			R.Elbow			R.Wrist			
		X1	Y1	Z1	X2	Y2	Z2	X3	Y3	Z3	X4	Y4	Z4	X5	Y5	Z5	X6	Y6	Z6	X7	Y7	Z7	X8	Y8	Z8	X9	Y9	Z9	X10	Y10	Z10	X11	Y11	Z11	X12	Y12	Z12	X13	Y13	Z13	X14	Y14	Z14	X15	Y15	Z15	X16	Y16	Z16	X17	Y17	Z17	X18	Y18	Z18	X19	Y19	Z19	X20	Y20	Z20	X21	Y21	Z21	X22	Y22	Z22	X23	Y23	Z23	X24	Y24	Z24	X25	Y25	Z25	X26	Y26	Z26	X27	Y27	Z27	X28	Y28	Z28	X29	Y29	Z29	X30	Y30	Z30	X31	Y31	Z31	X32	Y32	Z32	X33	Y33	Z33	

124	47.814428571429	820.580850815391	1006.159168924100	431.253945328324	1028.812934291222	1429.715071184873	260.409110864353	1106.400430280755	1362.563575381816	435.082294411527	1000.799036810367	1438.154803534084	595.664152318638	989.500050164622	1494.496646912099	414.422095722474	1037.673677251450	945.701155031514	573.384583235263	1047.602034630671	956.315924481459	296.786732061061	1096.748932760183	754.461759125515	552.162173958933	1029.237790432631	638.107095794108	615.206156399184	1116.668087598257	593.194003167781	539.411362787221	1132.875606672772	511.081030347724	550.867164635241	1054.926155896929	730.570425584319	324.750589730625	946.077970068459	633.909230422218	252.983008643400	1008.854205956756	541.769027318580	316.715146318671	995.426740250688	474.222671901625	322.724243086126	961.556761071646	407.468377520772	312.079761280411	857.775937567036	306.087618333187	259.320548572255	894.314839945615	186.938175150616	325.765512010885	1115.946539824744	421.754879116286	562.826905167067	1056.018110574946	311.723457329735	625.975639980399	1119.797129183321	222.121262454288	573.487337059735	1017.749357013947	44.062802672487	547.265114374914	1185.264612376777	105.168546568881	582.501064008573	1102.408772318134	39.010000537570	620.087753491699	1307.657084520107	60.472797618685	606.931115163585	756.146984086816	38.388316531708	371.101911378610	824.274044481434	34.409753085022	285.563347607100	910.235858647935	95.047095375707	308.597553613041	1036.497227057408	40.702883463057	270.424088566665	1105.502665867408	1109.624251117768	103.286064399394	1358.845087483325	1049.439023573095	119.101494912990	863.020953756636	1115.076067127606	689.947352042898	860.805002617555	852.580302410757	679.559574356681	
125	47.828285714286	822.979260545561	1004.586864700517	435.027760632847	1027.207288328860	1429.080254635126	263.244693592137	1106.180190012391	1362.817582236544	437.649850136418	1000.662623191789	1437.606781426356	598.702736381409	988.407340881691	1493.868456511171	417.362531696950	1041.044177863151	945.020878838871	576.131343342554	1049.701972864378	955.934777949591	299.598640471751	1100.366247859605	753.036462946719	553.974444724738	1031.169546883948	636.582267962376	615.539283264197	1118.681508015816	591.916318430786	539.932484593303	1132.929562915530	508.566454374459	550.331059531371	1056.549440600113	729.547034268235	326.544328390647	946.594736727072	633.293589887014	255.386203896641	1009.666208021799	540.595603243562	318.081214697385	996.195567934335	472.453851831666	323.700213310691	960.804141945305	406.259128818617	313.195333939472	855.021994723197	306.704461955118	260.621230302394	890.112811307532	186.536067294247	326.095348232769	1114.642858681285	418.707227154135	561.944759104305	1052.533211354387	309.645756184529	624.817790801208	1113.618477855505	218.879642749981	571.405277244293	1007.195297861465	43.494185224256	545.279914131969	1175.657756036107	102.342262277172	580.258590849209	1091.607286285337	38.151712377596	618.450704715314	1297.476335242762	55.831738966757	605.153364725804	750.490951588323	38.835313336234	370.955247949854	818.726891547818	34.493336104394	285.581874744466	904.866829583447	94.988794823514	308.501656113405	1030.966489776582	40.508429543688	270.295504466228	1103.060868605973	1107.099870282515	108.274102973430	1355.686854382516	1042.336838247288	123.033827373365	868.809944191697	1111.925851696008	694.243097661287	873.732958461490	849.411423628797	685.341792117194	
126	47.842142857143	825.384829291432	1003.142800388342	438.966529558186	1025.495966771254	1428.587056467805	266.204999487641	1105.940726741748	1363.237303023207	440.305826781008	1000.564294417945	1437.188873754783	601.877833364225	987.270676975175	1493.376196667216	420.450752996877	1044.504357513968	944.522756271404	578.944349262231	1051.798986811844	955.707924592153	302.504768679484	1103.983478189128	751.760785827503	555.672967850635	1033.522188679285	635.455343595755	616.279763283292	1120.774667007730	590.820270736638	540.554896975897	1133.317881648398	506.306971314888	550.146039594453	1058.589784051954	728.768177639529	328.264944529074	947.631796084956	632.691880471421	257.880171949242	1011.359899463403	539.506041169697	319.349123040833	997.982044975575	470.614652904666	324.500518005110	960.803982618780	405.033989848758	314.245097636289	852.812309395012	307.595837840264	261.963644550386	886.275032061378	186.342363648821	326.374015873666	1113.729436968160	416.064680561981	561.432725471011	1049.848889630713	307.941019103080	624.363542149164	1108.135590239092	216.064749103481	569.828344056243	997.471008137192	43.033202370889	544.059049608445	1166.756601832374	100.111001128863	578.500571521952	1081.779482346278	37.565881681732	617.426671074784	1288.193727974267	52.118542953833	603.726041357713	744.888122902880	39.826118266116	370.751640611873	813.215838137111	34.824222614931	285.584878543530	899.680978965935	94.985451052335	308.312123483017	1025.434523809292	40.253270825629	270.138573437283	1100.094896684645	1104.562745417364	113.442102867153	1351.728111628986	1034.340486830006	126.746704778529	875.272188076622	1108.782455889975	698.822529074724	887.897937784760	846.429008740915	691.615640217000	
127	47.856000000000	827.754616761243	1001.907463286435	443.033682126490	1023.720015723122	1428.290716466315	269.273192951154	1105.694222015955	1363.847795673803	443.030438732446	1000.533468472288	1436.955946461747	605.162096956293	986.119512135653	1493.069045031667	423.666074528786	1047.957255092730	944.244054786631	581.829158758640	1053.846922976039	955.686214254441	305.505420809021	1107.398862308104	750.677583883563	557.318929088954	1036.114730285575	634.735017069700	617.505342403775	1122.766508545455	589.917693797381	541.362467150273	1133.880887882783	504.385350962012	550.431403863400	1061.050680331246	728.306878053264	329.955622010809	949.296047489102	632.144172494210	260.419557870971	1014.056612191693	538.566733050232	320.503044580656	1000.903679539578	468.772158159071	325.074526299411	961.681356770327	403.854726722943	315.178277433567	851.280827122642	308.855212724728	263.298378159784	882.917149318585	186.464820566265	326.566098094525	1113.101484479727	413.905160659841	561.383949863381	1047.890536523674	306.626844149927	624.608804272910	1103.435613779468	213.774896031206	568.817615912173	988.882194869008	42.690138464403	543.498329532922	1158.835744570615	98.510898860248	577.289319219579	1073.191253866612	37.219381534344	616.944748402228	1280.053672299405	49.372273957781	602.709223654671	739.406027272074	41.584870740043	370.487136320632	807.775523855182	35.543682616554	285.563181226421	894.760054771448	95.088859624950	308.003206418937	1019.899260348220	39.928308786993	269.957424495741	1096.631844234870	1102.097474986189	118.778312032812	1346.887329892903	1025.467443793139	130.231495564294	882.428233481124	1105.758028600496	703.657355320506	903.237509667001	843.804481665406	698.287607219606	
